,
.   http://www.scenetime.com/signup.php  ---&gt;  Hottest scene tracker on the net !!!
 
Scenetime lucky draw is started , join now and be the winner . offer is limited 

    Join Now   http://www.scenetime.com/signup.php

    seed back for speed


 



...................................NFO:.................................................








































          
          
              
              
                    
                    
                    
                    
Poster:
[IMG]http://img577.imageshack.us/img577/6304/mv5bmtm0mzkzmtc5n15bml5.jpg[/IMG]

IMDB Link: 
http://www.imdb.com/title/tt1456060/

Description:
A young Brooklyn boy witnesses the brutal murder of his mother and grows up obsessed with finding her killer.

General
Complete name                    : Boy.Wonder.2010.DVDRip.x264.AC3-SiC.mp4
Format                           : MPEG-4
Format profile                   : Base Media / Version 2
Codec ID                         : mp42
File size                        : 1.37 GiB
Duration                         : 1h 36mn
Overall bit rate                 : 2 028 Kbps
Encoded date                     : UTC 2011-12-04 18:06:36
Tagged date                      : UTC 2011-12-04 22:28:10
Writing application              : HandBrake 0.9.5 2011010300

Video
ID                               : 1
Format                           : AVC
Format/Info                      : Advanced Video Codec
Format profile                   : High@L3.0
Format settings, CABAC           : Yes
Format settings, ReFrames        : 3 frames
Codec ID                         : avc1
Codec ID/Info                    : Advanced Video Coding
Duration                         : 1h 36mn
Bit rate mode                    : Variable
Bit rate                         : 1 897 Kbps
Width                            : 720 pixels
Height                           : 304 pixels
Display aspect ratio             : 2.35:1
Frame rate mode                  : Constant
Frame rate                       : 29.970 fps
Color space                      : YUV
Chroma subsampling               : 4:2:0
Bit depth                        : 8 bits
Scan type                        : Progressive
Bits/(Pixel*Frame)               : 0.289
Stream size                      : 1.28 GiB (94%)
Writing library                  : x264 core 112
Encoded date                     : UTC 2011-12-04 18:06:36
Tagged date                      : UTC 2011-12-04 22:28:10

Audio
ID                               : 2
Format                           : AC-3
Format/Info                      : Audio Coding 3
Mode extension                   : CM (complete main)
Codec ID                         : ac-3
Duration                         : 1h 36mn
Bit rate mode                    : Constant
Bit rate                         : 128 Kbps
Channel(s)                       : 2 channels
Channel positions                : Front: L R
Sampling rate                    : 48.0 KHz
Bit depth                        : 16 bits
Compression mode                 : Lossy
Stream size                      : 88.3 MiB (6%)
Language                         : English
Encoded date                     : UTC 2011-12-04 18:06:36
Tagged date                      : UTC 2011-12-04 22:28:09

Screenshots:
[IMG]http://img845.imageshack.us/img845/4930/vlcsnap2011120418h09m14.png[/IMG]
[IMG]http://img560.imageshack.us/img560/4331/vlcsnap2011120418h08m45.png[/IMG]
[IMG]http://img821.imageshack.us/img821/1100/vlcsnap2011120418h08m13.png[/IMG]
[IMG]http://img4.imageshack.us/img4/4659/vlcsnap2011120418h08m36.png[/IMG]
[IMG]http://img37.imageshack.us/img37/820/vlcsnap2011120418h11m48.png[/IMG]
[IMG]http://img12.imageshack.us/img12/5664/vlcsnap2011120418h08m27.png[/IMG]
[IMG]http://img714.imageshack.us/img714/8339/vlcsnap2011120418h10m06.png[/IMG]
[IMG]http://img192.imageshack.us/img192/8428/vlcsnap2011120418h08m55.png[/IMG]

Note: THANKS Vik :)

Source:  Boy Wonder Dvdrip legit-Vids  MANY THANKS:)

Enjoy!

Respects to T00NG0D, ELEKTRI4KA, PA, YeFsTe, Box, MrRep and everyone in the struggle...